# xmcd CD database file
#
# Track frame offsets:
#	150
#	18888
#	38329
#	59022
#	77221
#	95519
#	108443
#	123243
#	140871
#	155865
#	170441
#	183613
#	205704
#	221445
#	237941
#	253801
#	268525
#
# Disc length: 3784 seconds
#
# Revision: 0
# Processed by: cddbd v1.5.2PL0 Copyright (c) Steve Scherf et al.
# Submitted via: CDex 1.70beta2
#
DISCID=f30ec611
DTITLE=Varios - Country Girls
DYEAR=2000
DGENRE=Country
TTITLE0=Corazon de la noche
TTITLE1=Adios a mi corazon
TTITLE2=Missisippi
TTITLE3=Aquellos recuerdos tuyos
TTITLE4=Even cowgirl, get the blues
TTITLE5=Country of heart
TTITLE6=Country de la armonica
TTITLE7=Cazador de corazones solitarios
TTITLE8=Como se dice (I love you)
TTITLE9=Up hill all the way
TTITLE10=Long shot
TTITLE11=You never know
TTITLE12=Good
TTITLE13=You just don´t know it yet
TTITLE14=Oh heart
TTITLE15=That´s all right
TTITLE16=This heart
EXTD=YEAR: 2000
EXTT0=
EXTT1=
EXTT2=
EXTT3=
EXTT4=
EXTT5=
EXTT6=
EXTT7=
EXTT8=
EXTT9=
EXTT10=
EXTT11=
EXTT12=
EXTT13=
EXTT14=
EXTT15=
EXTT16=
PLAYORDER=
